<svg width="45" height="45" viewBox="0 0 45 45" fill="none" xmlns="http://www.w3.org/2000/svg">
<path d="M0 0V45H45V0H0ZM37.9956 28.532C34.4696 37.5287 25.0167 40.7117 17.9292 38.4672C18.459 37.1586 19.062 35.8673 19.5036 34.5231C19.9472 33.1731 20.23 31.7704 20.5626 30.471C20.849 30.712 21.1367 30.9674 21.4381 31.2056C23.0042 32.4433 24.7761 32.5635 26.6324 32.1172C28.605 31.6429 30.1638 30.5245 31.3182 28.8804C33.2707 26.0998 33.9597 22.954 33.4878 19.6434C32.9998 16.2202 30.9729 13.743 27.7953 12.4956C23.0076 10.6161 18.4688 11.2488 14.5373 14.6935C11.5136 17.3427 10.4971 21.8339 11.9515 25.3304C12.4556 26.5424 13.2522 27.4936 14.4576 28.0651C15.0684 28.3547 15.3277 28.2366 15.5044 27.5986C15.5176 27.5511 15.5336 27.5043 15.551 27.4582C15.8894 26.5656 15.8104 25.8317 15.2081 24.97C14.1103 23.3994 14.3061 21.5813 14.8358 19.8392C15.8402 16.5358 18.7916 14.3317 22.2529 14.2997C23.1801 14.2911 24.1345 14.3706 25.0325 14.5897C27.7034 15.2413 29.4279 17.3069 29.6007 20.0455C29.7394 22.2417 29.3961 24.3753 28.4413 26.3807C27.9685 27.3736 27.3446 28.2564 26.4159 28.8814C25.5435 29.4684 24.5895 29.705 23.5544 29.4345C22.1283 29.0619 21.3187 27.7609 21.6794 26.3333C22.0532 24.8537 22.537 23.4017 22.9037 21.9205C23.0587 21.2941 23.1402 20.6138 23.0765 19.9757C22.903 18.2377 21.2609 17.4273 19.7259 18.2757C18.6507 18.8701 18.133 19.8634 17.8928 21.0128C17.6455 22.1969 17.7653 23.3639 18.1505 24.5121C18.228 24.7429 18.2394 25.028 18.1848 25.2659C17.4874 28.3071 16.7415 31.3376 16.081 34.3867C15.8883 35.2764 15.9241 36.2161 15.8599 37.1332C15.8477 37.309 15.8581 37.4863 15.8581 37.7198C8.51387 34.6506 3.73316 25.9044 6.77354 17.0214C9.78113 8.23423 19.5104 3.63254 28.2709 6.88571C37.0562 10.1482 41.4014 19.842 37.9956 28.532Z" fill="white"/>
</svg>
